Coordinates
version=1
nRows=8
nColumns=28
inDegrees=yes

Units are S.I. units (second, meters, Newtons, ...)
Angles are in degrees.

endheader
time	pelvis_tilt	pelvis_list	pelvis_rotation	pelvis_tx	pelvis_ty	pelvis_tz	hip_flexion_r	hip_adduction_r	hip_rotation_r	knee_angle_r	ankle_angle_r	subtalar_angle_r	mtp_angle_r	hip_flexion_l	hip_adduction_l	hip_rotation_l	knee_angle_l	socket_flexion	socket_adduction	socket_rotation	socket_tx	socket_ty	socket_tz	foot_flex	lumbar_extension	lumbar_bending	lumbar_rotation
      0.31666667	      1.24500141	     -0.96098650	     -3.30744164	     -0.45646346	      1.02970842	      0.29420012	     15.05981524	      0.86890100	     -2.52094430	    -65.24975419	      4.69865297	    -16.16824708	      0.46439216	      0.37241248	      0.27099874	     -5.98128085	     -4.10626866	      0.75354741	     -0.12153572	     16.35081045	      0.00000000	     -0.00811969	      0.00000000	     -0.84797310	    -11.40274776	     -2.63169183	      3.53165618
      0.32083333	      1.27639451	     -0.98543602	     -3.22276511	     -0.45129287	      1.03026169	      0.29416812	     15.59326878	      0.91078974	     -2.55386995	    -64.88366190	      4.80707905	    -16.15245403	      0.48454476	      0.01421358	      0.25582716	     -5.96379745	     -4.12903357	      0.66536066	     -0.12554762	     16.39968754	      0.00000000	     -0.00777954	      0.00000000	     -0.77867395	    -11.48249293	     -2.61029462	      3.51785027
      0.32500000	      1.30870983	     -1.59129738	     -2.87908682	     -0.44514489	      1.03087826	      0.29356404	     15.78852115	      1.51364208	     -2.92463910	    -64.09638408	      5.78756353	    -15.29401933	      0.72583967	     -0.59725313	     -0.38586218	     -5.94313084	     -3.64604678	      0.86179874	     -0.01139024	     16.79438806	      0.00000000	     -0.00824346	      0.00000000	     -0.58393446	    -11.42891226	     -1.77388322	      3.12573628
      0.32916667	      1.35292149	     -1.59221653	     -2.81269050	     -0.44009840	      1.03129488	      0.29355918	     16.32479226	      1.51938530	     -2.95910110	    -63.72582999	      5.85608115	    -15.28387263	      0.73310063	     -0.95301445	     -0.37604272	     -5.92971374	     -3.68168377	      0.77814843	     -0.02718183	     16.81474065	      0.00000000	     -0.00799156	      0.00000000	     -0.52798152	    -11.53264163	     -1.77507875	      3.11481601
      0.33333333	      1.53493062	     -1.98826246	     -2.47791333	     -0.43425664	      1.03206177	      0.29294371	     16.40669363	      1.83541350	     -3.34983102	    -62.93331951	      6.60671158	    -14.58218514	      0.82716191	     -1.67210367	     -0.77259402	     -5.83875436	     -3.22958060	      0.98079497	      0.04302067	     17.06543977	      0.00000000	     -0.00812054	      0.00000000	     -0.35669514	    -11.69322358	     -1.21004985	      2.74903244
      0.33750000	      1.74378650	     -2.17417469	     -2.25416765	     -0.42871192	      1.03274555	      0.29262068	     16.56953340	      1.96515204	     -3.59082744	    -62.27189027	      7.04262587	    -14.22179338	      0.76250158	     -2.37692343	     -0.95026224	     -5.71787654	     -2.85549469	      1.11862695	      0.12012479	     17.14891789	      0.00000000	     -0.00797411	      0.00000000	     -0.20904573	    -11.90939197	     -0.94003971	      2.53696455
      0.34166667	      2.11665897	     -2.32184899	     -2.07673872	     -0.42333515	      1.03368137	      0.29237632	     16.55594376	      2.06043283	     -3.78364668	    -61.57235880	      7.48231110	    -13.85572303	      0.25961136	     -3.39747158	     -1.06071264	     -5.42416372	     -2.04314930	      1.53477557	      0.26755347	     16.98772871	      0.00000000	     -0.00766545	      0.00000000	     -0.08471292	    -12.35157907	     -0.73439864	      2.34613954
      0.34583333	      2.11214913	     -2.35237033	     -1.96654168	     -0.41804649	      1.03404836	      0.29236756	     16.99608235	      2.10097625	     -3.84116784	    -60.91118830	      7.66700009	    -13.84980549	      0.26351362	     -3.72802430	     -1.09680809	     -5.41895310	     -2.03234476	      1.48405909	      0.26158785	     17.05751499	      0.00000000	     -0.00733386	      0.00000000	      0.04341975	    -12.33210829	     -0.69456279	      2.33506197
